<svg width="24" height="24" viewBox="0 0 24 24" fill="none" xmlns="http://www.w3.org/2000/svg">
<path d="M19.7292 11.9C20.0103 9.95968 20.1398 8.96204 19.7823 8.07444C19.4131 7.15801 18.5941 6.53099 16.956 5.27696L15.7322 4.34C13.6945 2.78 12.6756 2 11.5 2C10.3244 2 9.30555 2.78 7.26784 4.34L6.04397 5.27696C4.40592 6.53099 3.5869 7.15801 3.21774 8.07444C2.84858 8.99087 2.99862 10.0246 3.29868 12.0921L3.55456 13.8552C3.97994 16.786 4.19263 18.2515 5.18535 19.1257C6.17807 20 7.62938 20 10.532 20H11" stroke="black" stroke-width="1.5" stroke-linecap="round" stroke-linejoin="round"/>
<path d="M19.4387 14.0728C19.1728 14.0728 19.0398 14.0728 18.9186 14.0278C18.9018 14.0216 18.8852 14.0147 18.8689 14.0072C18.7514 13.9533 18.6574 13.8593 18.4693 13.6713C18.0365 13.2384 17.8201 13.022 17.5538 13.002C17.518 12.9993 17.482 12.9993 17.4462 13.002C17.1799 13.022 16.9635 13.2384 16.5306 13.6712C16.3426 13.8593 16.2485 13.9533 16.1311 14.0072C16.1148 14.0147 16.0982 14.0216 16.0814 14.0278C15.9602 14.0728 15.8272 14.0728 15.5613 14.0728H15.5122C14.8337 14.0728 14.4944 14.0728 14.2836 14.2836C14.0728 14.4944 14.0728 14.8337 14.0728 15.5122V15.5613C14.0728 15.8272 14.0728 15.9602 14.0278 16.0814C14.0216 16.0982 14.0147 16.1148 14.0072 16.1311C13.9533 16.2485 13.8593 16.3426 13.6712 16.5306C13.2384 16.9635 13.022 17.1799 13.002 17.4462C12.9993 17.482 12.9993 17.518 13.002 17.5538C13.022 17.8201 13.2384 18.0365 13.6712 18.4693C13.8593 18.6574 13.9533 18.7514 14.0072 18.8689C14.0147 18.8852 14.0216 18.9018 14.0278 18.9186C14.0728 19.0398 14.0728 19.1728 14.0728 19.4387V19.4878C14.0728 20.1663 14.0728 20.5056 14.2836 20.7164C14.4944 20.9272 14.8337 20.9272 15.5122 20.9272H15.5613C15.8272 20.9272 15.9602 20.9272 16.0814 20.9722C16.0982 20.9784 16.1148 20.9853 16.1311 20.9928C16.2485 21.0467 16.3426 21.1407 16.5306 21.3287C16.9635 21.7616 17.1799 21.978 17.4462 21.998C17.482 22.0007 17.518 22.0007 17.5538 21.998C17.8201 21.978 18.0365 21.7616 18.4693 21.3287C18.6574 21.1407 18.7514 21.0467 18.8689 20.9928C18.8852 20.9853 18.9018 20.9784 18.9186 20.9722C19.0398 20.9272 19.1728 20.9272 19.4387 20.9272H19.4878C20.1663 20.9272 20.5056 20.9272 20.7164 20.7164C20.9272 20.5056 20.9272 20.1663 20.9272 19.4878V19.4387C20.9272 19.1728 20.9272 19.0398 20.9722 18.9186C20.9784 18.9018 20.9853 18.8852 20.9928 18.8689C21.0467 18.7514 21.1407 18.6574 21.3287 18.4693C21.7616 18.0365 21.978 17.8201 21.998 17.5538C22.0007 17.518 22.0007 17.482 21.998 17.4462C21.978 17.1799 21.7616 16.9635 21.3287 16.5306C21.1407 16.3426 21.0467 16.2485 20.9928 16.1311C20.9853 16.1148 20.9784 16.0982 20.9722 16.0814C20.9272 15.9602 20.9272 15.8272 20.9272 15.5613V15.5122C20.9272 14.8337 20.9272 14.4944 20.7164 14.2836C20.5056 14.0728 20.1663 14.0728 19.4878 14.0728H19.4387Z" stroke="black"/>
<path d="M19 17.5C19 18.3284 18.3284 19 17.5 19C16.6716 19 16 18.3284 16 17.5C16 16.6716 16.6716 16 17.5 16C18.3284 16 19 16.6716 19 17.5Z" stroke="black"/>
</svg>
